<?xml version="1.0" encoding="utf-8"?>
<!-- Generator: Adobe Illustrator 16.0.0, SVG Export Plug-In . SVG Version: 6.00 Build 0)  -->
<!DOCTYPE svg PUBLIC "-//W3C//DTD SVG 1.1//EN" "http://www.w3.org/Graphics/SVG/1.1/DTD/svg11.dtd">
<svg version="1.1" id="Capa_1" xmlns="http://www.w3.org/2000/svg" xmlns:xlink="http://www.w3.org/1999/xlink" x="0px" y="0px"
	 width="200px" height="60.297px" viewBox="0 0 200 60.297" enable-background="new 0 0 200 60.297" xml:space="preserve">
<path fill="#FFFFFF" d="M1.166,53.603c-0.331,0-0.611-0.123-0.839-0.367c-0.228-0.245-0.342-0.522-0.342-0.834V8.103
	c0-0.356,0.125-0.656,0.373-0.901c0.249-0.245,0.519-0.367,0.808-0.367H7.38c0.29,0,0.549,0.123,0.777,0.367
	s0.342,0.545,0.342,0.901v44.299c0,0.312-0.104,0.589-0.311,0.834c-0.208,0.244-0.477,0.367-0.808,0.367H1.166z"/>
<path fill="#C3943C" d="M37.557,53.469c-0.342,0-0.599-0.111-0.77-0.333c-0.171-0.223-0.256-0.335-0.256-0.335
	c-1.669-2.713-4.396-7.115-8.183-13.209c-3.787-6.093-6.644-10.741-8.569-13.943c-0.257-0.312-0.428-0.467-0.513-0.467
	c-0.086,0-0.139,0.089-0.161,0.267s-0.033,0.312-0.032,0.4l0.128,14.252c0.003,0.312-0.107,0.59-0.321,0.833
	c-0.213,0.246-0.492,0.367-0.834,0.367H11.82c-0.342,0-0.631-0.111-0.867-0.333c-0.235-0.223-0.353-0.511-0.353-0.867V8.236
	c0-0.356,0.118-0.656,0.353-0.9c0.235-0.245,0.524-0.367,0.867-0.367h6.29c0.299,0,0.556,0.133,0.77,0.4l15.532,26.887
	c0.385,0.756,0.706,1.134,0.962,1.134c0.214,0,0.324-0.378,0.321-1.134l-0.064-20.084c-0.001-0.356,0.118-0.656,0.354-0.901
	c0.235-0.245,0.502-0.367,0.802-0.367h6.804c0.342,0,0.631,0.123,0.867,0.367c0.235,0.245,0.353,0.545,0.353,0.901v38.097
	c0,0.355-0.118,0.646-0.353,0.868c-0.235,0.222-0.525,0.333-0.867,0.333h-5.905h-0.064H37.557z"/>
<path fill-rule="evenodd" clip-rule="evenodd" fill="#FFFFFF" d="M56.3,2.134h0.466c0.398,0,0.723,0.325,0.723,0.722v55.053
	c0,0.398-0.325,0.723-0.723,0.723H56.3c-0.397,0-0.723-0.324-0.723-0.723V2.856C55.577,2.458,55.902,2.134,56.3,2.134"/>
<path fill="#FFFFFF" d="M69.373,40.393c-0.253,0-0.466-0.088-0.64-0.261c-0.174-0.173-0.261-0.371-0.261-0.593V8.091
	c0-0.252,0.095-0.466,0.284-0.64c0.19-0.173,0.395-0.26,0.616-0.26h4.736c0.221,0,0.418,0.087,0.592,0.26
	c0.173,0.174,0.26,0.387,0.26,0.64V39.54c0,0.222-0.079,0.42-0.237,0.593c-0.158,0.173-0.363,0.261-0.615,0.261H69.373z"/>
<path fill="#FFFFFF" d="M113.942,22.158c1.232,0,2.29-0.434,3.174-1.302c0.885-0.869,1.326-1.903,1.326-3.103
	c0-1.231-0.441-2.274-1.326-3.126c-0.884-0.852-1.941-1.278-3.174-1.278h-4.404c-0.568,0-0.853,0.316-0.853,0.947V21.4
	c0,0.221,0.063,0.402,0.189,0.544c0.127,0.142,0.3,0.213,0.521,0.213H113.942z M103.997,40.44c-0.253,0-0.466-0.087-0.64-0.261
	c-0.174-0.173-0.261-0.37-0.261-0.592V8.091c0-0.221,0.087-0.418,0.261-0.592c0.174-0.174,0.387-0.261,0.64-0.261h9.945
	c1.958,0,3.767,0.466,5.424,1.397c1.658,0.932,2.968,2.203,3.931,3.813c0.963,1.61,1.445,3.378,1.445,5.305
	c0,1.642-0.38,3.173-1.137,4.594c-0.758,1.421-1.784,2.652-3.079,3.695c-0.189,0.158-0.284,0.363-0.284,0.616
	c0,0.094,0.017,0.174,0.048,0.236c0.031,0.063,0.047,0.111,0.047,0.143l5.494,12.267c0.095,0.222,0.143,0.427,0.143,0.616
	c0,0.348-0.205,0.521-0.616,0.521h-4.168c-0.348,0-0.607-0.032-0.781-0.094c-0.174-0.064-0.323-0.222-0.45-0.475l-4.973-11.083
	c-0.063-0.189-0.182-0.316-0.355-0.379c-0.174-0.063-0.481-0.11-0.924-0.142h-3.788c-0.475,0-0.798,0.063-0.972,0.189
	c-0.174,0.126-0.261,0.363-0.261,0.71v10.42c0,0.222-0.087,0.419-0.26,0.592c-0.174,0.174-0.388,0.261-0.64,0.261H103.997z"/>
<path fill="#FFFFFF" d="M163.876,40.25c-2.432,0-4.919-0.395-7.46-1.184c-2.542-0.789-4.334-1.658-5.376-2.605
	c-0.189-0.189-0.284-0.426-0.284-0.71c0-0.316,0.126-0.71,0.379-1.185c0.253-0.473,0.679-1.136,1.278-1.989
	c0.222-0.315,0.49-0.474,0.806-0.474c0.095,0,0.237,0.032,0.427,0.095c2.241,1.137,4.097,1.855,5.564,2.155
	c1.469,0.301,3.023,0.45,4.666,0.45c1.609,0,2.881-0.276,3.813-0.829s1.396-1.286,1.396-2.202c0-0.758-0.331-1.563-0.994-2.416
	c-0.411-0.537-1.065-0.987-1.966-1.35c-0.899-0.363-2.028-0.734-3.386-1.113c-0.158-0.031-0.569-0.142-1.232-0.331
	c-2.557-0.758-4.546-1.666-5.968-2.724c-1.42-1.058-2.367-2.392-2.841-4.002c-0.348-1.105-0.521-2.116-0.521-3.031
	c0-1.611,0.427-3.087,1.279-4.429s2.083-2.455,3.694-3.339c1.61-0.884,3.504-1.437,5.683-1.658c0.285-0.032,0.727-0.048,1.326-0.048
	c2.4,0,4.753,0.458,7.058,1.374c2.463,1.231,3.552,2.273,3.269,3.126c-0.19,0.474-0.561,1.066-1.113,1.776
	c-0.553,0.711-0.907,1.176-1.066,1.397c-0.094,0.126-0.236,0.189-0.426,0.189c-0.315,0-0.853-0.189-1.61-0.568
	c-1.011-0.474-1.848-0.773-2.511-0.899c-1.452-0.316-2.636-0.474-3.552-0.474c-1.01,0-2.037,0.173-3.078,0.521
	c-0.821,0.411-1.453,0.892-1.895,1.444c-0.442,0.553-0.663,1.129-0.663,1.729c0,0.884,0.441,1.658,1.326,2.321
	c0.979,0.695,2.028,1.279,3.149,1.752c1.121,0.474,2.376,0.963,3.765,1.469c1.516,0.568,2.739,1.082,3.671,1.539
	c0.932,0.458,1.697,1.065,2.297,1.824c0.632,0.6,1.161,1.452,1.587,2.557c0.427,1.105,0.64,2.163,0.64,3.173
	c0,1.77-0.474,3.301-1.421,4.595c-0.947,1.295-2.258,2.298-3.932,3.008C167.98,39.895,166.055,40.25,163.876,40.25"/>
<path fill="#FFFFFF" d="M176.873,40.393c-0.19,0-0.349-0.063-0.475-0.19c-0.127-0.126-0.188-0.283-0.188-0.473V7.854
	c0-0.189,0.062-0.347,0.188-0.474c0.126-0.126,0.284-0.189,0.475-0.189h4.973c0.188,0,0.347,0.071,0.474,0.213
	c0.126,0.142,0.188,0.292,0.188,0.45v12.362c0,0.284,0.111,0.537,0.332,0.758c0.222,0.221,0.474,0.332,0.758,0.332h8.999
	c0.284,0,0.529-0.103,0.734-0.308s0.324-0.465,0.355-0.781V7.854c0-0.158,0.063-0.308,0.189-0.45
	c0.126-0.142,0.283-0.213,0.474-0.213h4.973c0.189,0,0.347,0.063,0.474,0.189c0.126,0.126,0.189,0.284,0.189,0.474V39.73
	c0,0.189-0.063,0.347-0.189,0.473c-0.127,0.127-0.284,0.19-0.474,0.19h-4.973c-0.19,0-0.348-0.071-0.474-0.214
	c-0.127-0.142-0.189-0.291-0.189-0.449V28.741c-0.031-0.316-0.15-0.576-0.355-0.781c-0.205-0.205-0.45-0.308-0.734-0.308h-8.999
	c-0.284,0-0.528,0.095-0.734,0.285c-0.205,0.189-0.323,0.442-0.355,0.758V39.73c0,0.158-0.063,0.308-0.188,0.449
	c-0.127,0.143-0.285,0.214-0.474,0.214H176.873z"/>
<path fill="#FFFFFF" d="M137.714,40.539c-2.104,0-4.052-0.519-5.843-1.555s-3.22-2.442-4.288-4.218s-1.603-3.715-1.603-5.819V8.071
	c0-0.251,0.087-0.463,0.259-0.636c0.174-0.173,0.37-0.259,0.59-0.259h4.523c0.22,0,0.416,0.086,0.59,0.259
	c0.172,0.172,0.258,0.385,0.258,0.636v20.876c0,1.539,0.535,2.851,1.604,3.934c1.067,1.085,2.371,1.627,3.91,1.627
	c1.163,0,2.254-0.251,3.275-0.754c1.021-0.503,1.83-1.179,2.428-2.026c0.596-0.849,0.895-1.775,0.895-2.78V8.071
	c0-0.251,0.086-0.463,0.26-0.636c0.172-0.173,0.368-0.259,0.589-0.259h4.523c0.221,0,0.416,0.086,0.589,0.259
	c0.173,0.172,0.26,0.385,0.26,0.636v20.876c0,2.137-0.55,4.084-1.649,5.843c-1.1,1.76-2.624,3.158-4.571,4.194
	S140.165,40.539,137.714,40.539"/>
<path fill="#FFFFFF" d="M196.47,47.833l-1.43,3.03h2.836L196.47,47.833z M193.125,53.529l3.029-6.642h0.631l3.006,6.642h-0.801
	l-0.921-2h-3.211l-0.909,2H193.125z M191.187,53.529v-6.313h0.824v6.313H191.187z M191.671,46.015l-0.545-0.206l0.715-1.127h0.872
	L191.671,46.015z M185.14,50.439h2.339c0.202,0,0.388-0.038,0.558-0.116c0.169-0.076,0.314-0.181,0.436-0.314
	s0.214-0.287,0.279-0.46c0.063-0.174,0.097-0.358,0.097-0.552c0-0.194-0.039-0.376-0.115-0.545c-0.077-0.17-0.18-0.321-0.309-0.455
	c-0.13-0.133-0.281-0.238-0.455-0.315c-0.174-0.076-0.361-0.114-0.563-0.114h-2.266V50.439z M184.388,53.529v-6.642h3.066
	c0.314,0,0.605,0.062,0.872,0.183s0.495,0.283,0.685,0.485c0.189,0.201,0.34,0.428,0.448,0.678c0.109,0.25,0.164,0.506,0.164,0.764
	c0,0.234-0.038,0.461-0.115,0.679s-0.186,0.414-0.327,0.587c-0.142,0.174-0.309,0.324-0.503,0.449
	c-0.193,0.125-0.412,0.212-0.654,0.26l1.77,2.558h-0.873l-1.672-2.412h-2.108v2.412H184.388z M182.837,52.851v0.678h-4.884v-6.642
	h4.787v0.68h-4.036v2.266h3.526v0.631h-3.526v2.388H182.837z M175.166,53.529V46.9h0.751v6.629H175.166z M167.811,48.306v5.223
	h-0.752v-6.642h0.582l4.727,5.32V46.9h0.764v6.629h-0.655L167.811,48.306z M165.508,52.851v0.678h-4.884v-6.642h4.786v0.68h-4.034
	v2.266h3.525v0.631h-3.525v2.388H165.508z M158.285,52.608c-0.654,0.646-1.414,0.97-2.278,0.97c-0.484,0-0.933-0.098-1.346-0.291
	c-0.411-0.193-0.767-0.448-1.065-0.764s-0.533-0.677-0.703-1.085s-0.255-0.825-0.255-1.255c0-0.443,0.083-0.865,0.249-1.266
	c0.165-0.399,0.397-0.753,0.696-1.06c0.299-0.308,0.652-0.552,1.061-0.734c0.408-0.182,0.854-0.271,1.339-0.271
	c0.712,0,1.289,0.133,1.732,0.399c0.445,0.267,0.785,0.614,1.019,1.042l-0.594,0.4c-0.226-0.404-0.529-0.699-0.909-0.885
	c-0.379-0.186-0.804-0.278-1.271-0.278c-0.389,0-0.74,0.074-1.055,0.224c-0.315,0.149-0.584,0.35-0.807,0.601
	c-0.222,0.25-0.394,0.536-0.515,0.859c-0.121,0.324-0.182,0.654-0.182,0.994c0,0.363,0.068,0.706,0.206,1.03
	c0.138,0.323,0.325,0.607,0.563,0.854c0.238,0.247,0.519,0.44,0.842,0.582c0.324,0.142,0.671,0.212,1.043,0.212
	c0.824,0,1.566-0.355,2.229-1.065v-0.994h-1.588v-0.582h2.242v3.284h-0.654V52.608z M145.768,48.306v5.223h-0.752v-6.642h0.581
	l4.727,5.32V46.9h0.764v6.629h-0.654L145.768,48.306z M142.229,53.529V46.9h0.751v6.629H142.229z M137.587,52.851v0.678h-4.884
	v-6.642h4.787v0.68h-4.035v2.266h3.526v0.631h-3.526v2.388H137.587z M130.353,50.196c0-0.387-0.059-0.741-0.176-1.061
	c-0.117-0.318-0.291-0.596-0.521-0.829c-0.23-0.235-0.513-0.417-0.848-0.546c-0.336-0.13-0.722-0.193-1.158-0.193h-1.721v5.284
	h1.721c0.445,0,0.834-0.067,1.17-0.201c0.335-0.133,0.616-0.319,0.843-0.558c0.226-0.237,0.397-0.519,0.515-0.842
	S130.353,50.576,130.353,50.196z M125.178,53.529v-6.642h2.472c0.582,0,1.09,0.088,1.521,0.262c0.433,0.173,0.794,0.41,1.084,0.709
	c0.291,0.299,0.51,0.647,0.654,1.048c0.146,0.399,0.219,0.83,0.219,1.29c0,0.51-0.083,0.968-0.248,1.376
	c-0.166,0.407-0.4,0.757-0.703,1.049c-0.303,0.29-0.669,0.514-1.097,0.672c-0.429,0.157-0.904,0.236-1.431,0.236H125.178z
	 M119.906,48.221c-0.21-0.21-0.48-0.38-0.812-0.51c-0.331-0.128-0.711-0.193-1.14-0.193c-0.613,0-1.062,0.103-1.345,0.309
	c-0.283,0.207-0.424,0.491-0.424,0.855c0,0.186,0.038,0.339,0.114,0.46c0.077,0.121,0.198,0.227,0.364,0.315
	c0.165,0.088,0.371,0.165,0.618,0.229c0.246,0.065,0.539,0.134,0.878,0.206c0.372,0.081,0.709,0.165,1.012,0.255
	c0.304,0.089,0.562,0.203,0.775,0.345s0.378,0.313,0.491,0.516s0.17,0.452,0.17,0.751c0,0.315-0.064,0.587-0.194,0.817
	c-0.129,0.23-0.309,0.421-0.539,0.57s-0.503,0.261-0.818,0.333c-0.314,0.072-0.657,0.109-1.03,0.109
	c-1.105,0-2.067-0.315-2.883-0.945l0.375-0.631c0.267,0.259,0.616,0.476,1.048,0.648c0.433,0.174,0.927,0.261,1.484,0.261
	c0.542,0,0.97-0.088,1.285-0.267c0.315-0.177,0.473-0.448,0.473-0.812c0-0.193-0.046-0.356-0.14-0.49
	c-0.093-0.135-0.228-0.251-0.406-0.353c-0.178-0.1-0.401-0.188-0.672-0.26c-0.271-0.073-0.58-0.146-0.927-0.218
	c-0.372-0.082-0.699-0.167-0.982-0.255c-0.282-0.089-0.518-0.2-0.702-0.334c-0.186-0.133-0.328-0.294-0.425-0.484
	c-0.097-0.189-0.146-0.423-0.146-0.696c0-0.308,0.064-0.579,0.194-0.818c0.129-0.238,0.307-0.438,0.533-0.6
	c0.227-0.162,0.494-0.282,0.806-0.364c0.312-0.08,0.652-0.12,1.024-0.12c0.929,0,1.692,0.254,2.29,0.763L119.906,48.221z
	 M108.14,50.208c0,0.348,0.064,0.683,0.193,1.005c0.13,0.324,0.31,0.608,0.539,0.855c0.23,0.246,0.508,0.444,0.831,0.593
	c0.323,0.15,0.682,0.225,1.078,0.225c0.403,0,0.768-0.076,1.091-0.23c0.323-0.153,0.6-0.356,0.83-0.611
	c0.229-0.255,0.406-0.542,0.527-0.86c0.121-0.319,0.182-0.645,0.182-0.976c0-0.348-0.065-0.683-0.194-1.006
	s-0.311-0.608-0.545-0.854s-0.511-0.442-0.83-0.588s-0.673-0.218-1.061-0.218c-0.403,0-0.768,0.076-1.091,0.229
	c-0.323,0.154-0.6,0.358-0.83,0.612c-0.23,0.255-0.408,0.541-0.533,0.861C108.202,49.564,108.14,49.884,108.14,50.208z
	 M110.781,53.578c-0.509,0-0.974-0.095-1.394-0.285c-0.42-0.189-0.777-0.441-1.072-0.757s-0.525-0.675-0.691-1.079
	c-0.165-0.404-0.248-0.819-0.248-1.248c0-0.437,0.087-0.859,0.261-1.267c0.173-0.408,0.412-0.766,0.715-1.072
	c0.303-0.308,0.663-0.554,1.078-0.74c0.416-0.186,0.867-0.277,1.352-0.277c0.509,0,0.972,0.097,1.387,0.29
	c0.417,0.194,0.774,0.451,1.073,0.77c0.299,0.319,0.529,0.681,0.691,1.085c0.161,0.403,0.242,0.813,0.242,1.224
	c0,0.445-0.087,0.869-0.261,1.273c-0.174,0.403-0.412,0.761-0.716,1.071c-0.302,0.311-0.659,0.558-1.071,0.739
	C111.714,53.486,111.266,53.578,110.781,53.578z M105.073,53.529V46.9h0.752v6.629H105.073z M97.378,50.16
	c0-0.396,0.077-0.791,0.23-1.188c0.153-0.396,0.375-0.751,0.667-1.066s0.65-0.569,1.079-0.764c0.428-0.193,0.917-0.29,1.466-0.29
	c0.646,0,1.197,0.135,1.654,0.405c0.456,0.271,0.797,0.62,1.023,1.049l-0.605,0.388c-0.113-0.219-0.25-0.4-0.412-0.546
	s-0.336-0.265-0.521-0.357s-0.379-0.157-0.581-0.194c-0.202-0.035-0.4-0.054-0.594-0.054c-0.428,0-0.808,0.078-1.139,0.236
	c-0.331,0.157-0.608,0.362-0.83,0.611c-0.222,0.251-0.39,0.534-0.503,0.85c-0.113,0.314-0.17,0.633-0.17,0.956
	c0,0.356,0.067,0.697,0.2,1.023c0.133,0.328,0.319,0.617,0.558,0.867c0.238,0.251,0.521,0.449,0.848,0.594
	c0.327,0.146,0.681,0.218,1.061,0.218c0.203,0,0.408-0.022,0.618-0.065c0.211-0.045,0.414-0.115,0.612-0.212
	c0.197-0.098,0.38-0.224,0.545-0.377c0.166-0.152,0.306-0.335,0.418-0.545l0.643,0.353c-0.121,0.242-0.286,0.459-0.497,0.653
	c-0.21,0.193-0.445,0.355-0.709,0.485c-0.262,0.129-0.539,0.228-0.829,0.296c-0.292,0.069-0.574,0.104-0.849,0.104
	c-0.501,0-0.957-0.1-1.369-0.297c-0.412-0.198-0.768-0.458-1.066-0.782c-0.299-0.322-0.531-0.688-0.697-1.096
	C97.461,51.005,97.378,50.587,97.378,50.16z M95.076,53.529V46.9h0.751v6.629H95.076z M87.951,46.887l2.557,5.587l2.533-5.587h0.799
	l-3.017,6.642h-0.655l-3.017-6.642H87.951z M81.952,50.439h2.338c0.202,0,0.388-0.038,0.558-0.116
	c0.17-0.076,0.315-0.181,0.437-0.314s0.214-0.287,0.279-0.46c0.064-0.174,0.097-0.358,0.097-0.552c0-0.194-0.039-0.376-0.115-0.545
	c-0.077-0.17-0.179-0.321-0.309-0.455c-0.13-0.133-0.281-0.238-0.455-0.315c-0.174-0.076-0.362-0.114-0.563-0.114h-2.266V50.439z
	 M81.201,53.529v-6.642h3.066c0.315,0,0.606,0.062,0.873,0.183s0.495,0.283,0.684,0.485c0.19,0.201,0.34,0.428,0.449,0.678
	c0.109,0.25,0.164,0.506,0.164,0.764c0,0.234-0.039,0.461-0.115,0.679c-0.077,0.218-0.186,0.414-0.328,0.587
	c-0.141,0.174-0.309,0.324-0.503,0.449c-0.194,0.125-0.412,0.212-0.654,0.26l1.77,2.558h-0.873l-1.672-2.412h-2.108v2.412H81.201z
	 M79.649,52.851v0.678h-4.884v-6.642h4.787v0.68h-4.035v2.266h3.526v0.631h-3.526v2.388H79.649z M72.584,48.221
	c-0.21-0.21-0.48-0.38-0.812-0.51c-0.331-0.128-0.711-0.193-1.139-0.193c-0.614,0-1.063,0.103-1.345,0.309
	c-0.283,0.207-0.424,0.491-0.424,0.855c0,0.186,0.038,0.339,0.115,0.46c0.077,0.121,0.198,0.227,0.364,0.315
	c0.166,0.088,0.372,0.165,0.618,0.229c0.246,0.065,0.539,0.134,0.878,0.206c0.372,0.081,0.709,0.165,1.012,0.255
	c0.303,0.089,0.561,0.203,0.775,0.345c0.214,0.142,0.377,0.313,0.491,0.516s0.169,0.452,0.169,0.751
	c0,0.315-0.064,0.587-0.194,0.817s-0.309,0.421-0.539,0.57c-0.23,0.149-0.503,0.261-0.818,0.333
	c-0.315,0.072-0.659,0.109-1.03,0.109c-1.107,0-2.068-0.315-2.884-0.945l0.375-0.631c0.267,0.259,0.617,0.476,1.049,0.648
	c0.432,0.174,0.927,0.261,1.484,0.261c0.541,0,0.969-0.088,1.285-0.267c0.315-0.177,0.472-0.448,0.472-0.812
	c0-0.193-0.046-0.356-0.139-0.49c-0.093-0.135-0.229-0.251-0.406-0.353c-0.178-0.1-0.402-0.188-0.673-0.26
	c-0.271-0.073-0.58-0.146-0.927-0.218c-0.372-0.082-0.699-0.167-0.982-0.255c-0.283-0.089-0.517-0.2-0.703-0.334
	c-0.186-0.133-0.327-0.294-0.424-0.484c-0.097-0.189-0.146-0.423-0.146-0.696c0-0.308,0.065-0.579,0.194-0.818
	c0.129-0.238,0.307-0.438,0.533-0.6c0.226-0.162,0.495-0.282,0.806-0.364c0.311-0.08,0.652-0.12,1.024-0.12
	c0.929,0,1.692,0.254,2.29,0.763L72.584,48.221z"/>
<path fill="#C3943C" d="M95.797,40.39c-0.243,0-0.425-0.078-0.546-0.236c-0.122-0.158-0.182-0.236-0.182-0.236
	c-1.185-1.926-3.121-5.051-5.808-9.375c-2.688-4.324-4.714-7.623-6.081-9.895c-0.183-0.221-0.304-0.332-0.364-0.332
	c-0.061,0-0.099,0.063-0.114,0.189c-0.015,0.126-0.023,0.221-0.023,0.284l0.091,10.114c0.002,0.221-0.076,0.417-0.228,0.592
	c-0.152,0.174-0.35,0.26-0.592,0.26h-4.418c-0.243,0-0.448-0.079-0.614-0.236c-0.167-0.157-0.251-0.363-0.251-0.616V8.29
	c0-0.252,0.083-0.465,0.251-0.639c0.167-0.174,0.372-0.261,0.614-0.261h4.464c0.213,0,0.395,0.095,0.547,0.285l11.022,19.08
	c0.273,0.537,0.501,0.805,0.684,0.805c0.151,0,0.229-0.269,0.227-0.805l-0.045-14.253c0-0.252,0.083-0.466,0.251-0.64
	c0.167-0.173,0.356-0.26,0.569-0.26h4.828c0.243,0,0.448,0.087,0.615,0.26c0.167,0.174,0.25,0.388,0.25,0.64v27.037
	c0,0.252-0.084,0.458-0.25,0.615c-0.167,0.158-0.372,0.236-0.615,0.236h-4.19h-0.045H95.797z"/>
</svg>
