<?xml version="1.0" encoding="utf-8"?>
<!-- Generator: Adobe Illustrator 16.0.0, SVG Export Plug-In . SVG Version: 6.00 Build 0)  -->
<!DOCTYPE svg PUBLIC "-//W3C//DTD SVG 1.1//EN" "http://www.w3.org/Graphics/SVG/1.1/DTD/svg11.dtd">
<svg version="1.1" id="Capa_1" xmlns="http://www.w3.org/2000/svg" xmlns:xlink="http://www.w3.org/1999/xlink" x="0px" y="0px"
	 width="200px" height="60.297px" viewBox="0 0 200 60.297" enable-background="new 0 0 200 60.297" xml:space="preserve">
<path fill="#4E4E4E" d="M2.259,55.396c-0.383,0-0.706-0.131-0.969-0.396c-0.263-0.263-0.395-0.563-0.395-0.898V6.311
	c0-0.384,0.144-0.708,0.431-0.972c0.287-0.264,0.598-0.396,0.933-0.396h7.174c0.334,0,0.633,0.133,0.896,0.396
	c0.263,0.264,0.395,0.588,0.395,0.972v47.792c0,0.335-0.119,0.636-0.359,0.898c-0.239,0.265-0.55,0.396-0.932,0.396H2.259z"/>
<path fill="#4E4E4E" d="M69.771,27.687c1.866,0,3.468-0.66,4.807-1.979c1.339-1.32,2.008-2.891,2.008-4.714
	c0-1.871-0.669-3.456-2.008-4.75c-1.339-1.295-2.941-1.943-4.807-1.943h-6.671c-0.861,0-1.292,0.48-1.292,1.44v10.796
	c0,0.335,0.096,0.612,0.287,0.828c0.191,0.217,0.454,0.324,0.789,0.324H69.771z M54.706,55.468c-0.383,0-0.707-0.131-0.97-0.396
	c-0.264-0.265-0.394-0.563-0.394-0.899V6.311c0-0.336,0.13-0.637,0.394-0.9c0.263-0.264,0.587-0.396,0.97-0.396h15.064
	c2.966,0,5.704,0.708,8.215,2.124c2.511,1.415,4.496,3.347,5.955,5.794c1.458,2.446,2.187,5.134,2.187,8.061
	c0,2.495-0.574,4.822-1.721,6.981c-1.147,2.16-2.702,4.031-4.664,5.615c-0.287,0.239-0.43,0.551-0.43,0.935
	c0,0.145,0.024,0.265,0.072,0.359c0.047,0.097,0.072,0.17,0.072,0.218l8.322,18.641c0.143,0.335,0.215,0.647,0.215,0.937
	c0,0.527-0.311,0.79-0.934,0.79h-6.313c-0.526,0-0.92-0.047-1.184-0.144c-0.262-0.096-0.49-0.335-0.681-0.719l-7.534-16.843
	c-0.095-0.288-0.274-0.479-0.538-0.576c-0.262-0.096-0.729-0.168-1.398-0.215h-5.739c-0.719,0-1.208,0.096-1.472,0.287
	c-0.262,0.191-0.394,0.553-0.394,1.079v15.835c0,0.336-0.132,0.635-0.394,0.899c-0.264,0.265-0.586,0.396-0.969,0.396H54.706z"/>
<path fill="#4E4E4E" d="M145.404,55.181c-3.684,0-7.449-0.601-11.299-1.798c-3.851-1.201-6.564-2.521-8.145-3.961
	c-0.286-0.288-0.43-0.647-0.43-1.078c0-0.48,0.191-1.08,0.573-1.8c0.385-0.72,1.029-1.728,1.938-3.023
	c0.335-0.479,0.743-0.721,1.22-0.721c0.145,0,0.359,0.05,0.646,0.145c3.395,1.728,6.206,2.819,8.43,3.275s4.578,0.683,7.066,0.683
	c2.438,0,4.364-0.42,5.775-1.258c1.411-0.841,2.114-1.955,2.114-3.348c0-1.15-0.501-2.375-1.506-3.671
	c-0.621-0.814-1.613-1.499-2.977-2.051c-1.363-0.553-3.073-1.116-5.13-1.692c-0.239-0.048-0.861-0.215-1.866-0.504
	c-3.872-1.15-6.885-2.529-9.038-4.138c-2.151-1.608-3.587-3.635-4.304-6.082c-0.526-1.68-0.79-3.215-0.79-4.606
	c0-2.447,0.646-4.69,1.938-6.73c1.292-2.039,3.156-3.73,5.596-5.074c2.44-1.344,5.309-2.183,8.608-2.519
	c0.432-0.048,1.1-0.072,2.009-0.072c3.635,0,7.198,0.696,10.69,2.088c3.73,1.871,5.38,3.454,4.949,4.75
	c-0.287,0.72-0.85,1.62-1.686,2.699c-0.838,1.08-1.374,1.788-1.614,2.124c-0.144,0.191-0.358,0.288-0.646,0.288
	c-0.478,0-1.291-0.288-2.439-0.864c-1.53-0.72-2.798-1.176-3.803-1.367c-2.199-0.48-3.993-0.72-5.38-0.72
	c-1.53,0-3.086,0.264-4.663,0.792c-1.244,0.624-2.199,1.355-2.87,2.195c-0.669,0.84-1.004,1.716-1.004,2.627
	c0,1.344,0.67,2.52,2.009,3.527c1.482,1.056,3.072,1.943,4.771,2.662c1.698,0.721,3.6,1.464,5.703,2.232
	c2.296,0.863,4.149,1.644,5.561,2.338c1.411,0.697,2.57,1.62,3.479,2.77c0.957,0.914,1.758,2.209,2.404,3.888
	c0.645,1.68,0.968,3.286,0.968,4.822c0,2.688-0.717,5.016-2.151,6.981c-1.436,1.969-3.421,3.49-5.956,4.571
	C151.621,54.641,148.704,55.181,145.404,55.181"/>
<path fill="#4E4E4E" d="M165.091,55.396c-0.287,0-0.527-0.095-0.719-0.286c-0.19-0.192-0.285-0.432-0.285-0.721V5.95
	c0-0.287,0.095-0.527,0.285-0.719c0.191-0.192,0.432-0.289,0.719-0.289h7.532c0.286,0,0.526,0.109,0.719,0.325
	c0.189,0.216,0.285,0.444,0.285,0.683v18.786c0,0.432,0.168,0.816,0.504,1.152c0.334,0.336,0.717,0.503,1.147,0.503h13.631
	c0.43,0,0.8-0.156,1.11-0.467c0.311-0.313,0.492-0.708,0.539-1.188V5.95c0-0.239,0.095-0.467,0.287-0.683
	c0.191-0.215,0.431-0.325,0.717-0.325h7.532c0.288,0,0.526,0.097,0.718,0.289c0.192,0.192,0.287,0.432,0.287,0.719v48.439
	c0,0.289-0.095,0.528-0.287,0.721c-0.191,0.191-0.43,0.286-0.718,0.286h-7.532c-0.286,0-0.525-0.105-0.717-0.323
	c-0.192-0.216-0.287-0.444-0.287-0.684V37.691c-0.047-0.48-0.229-0.875-0.539-1.187c-0.311-0.313-0.681-0.469-1.11-0.469h-13.631
	c-0.431,0-0.801,0.144-1.113,0.432c-0.311,0.288-0.49,0.672-0.538,1.152v16.77c0,0.239-0.096,0.468-0.285,0.684
	c-0.192,0.218-0.433,0.323-0.719,0.323H165.091z"/>
<path fill="#4E4E4E" d="M105.777,55.619c-3.188,0-6.138-0.786-8.85-2.361c-2.712-1.576-4.878-3.713-6.496-6.41
	c-1.618-2.698-2.426-5.646-2.426-8.845V6.28c0-0.382,0.13-0.705,0.391-0.967c0.263-0.263,0.56-0.395,0.894-0.395h6.852
	c0.333,0,0.63,0.132,0.893,0.395c0.261,0.262,0.392,0.584,0.392,0.967v31.723c0,2.34,0.81,4.332,2.427,5.98
	c1.618,1.646,3.592,2.471,5.924,2.471c1.761,0,3.413-0.383,4.962-1.146c1.545-0.765,2.77-1.79,3.675-3.079
	c0.903-1.289,1.356-2.698,1.356-4.226V6.28c0-0.382,0.13-0.705,0.393-0.967c0.261-0.263,0.56-0.395,0.892-0.395h6.853
	c0.334,0,0.631,0.132,0.893,0.395c0.262,0.262,0.393,0.584,0.393,0.967v31.723c0,3.247-0.833,6.208-2.499,8.881
	c-1.665,2.672-3.973,4.798-6.923,6.374C112.82,54.833,109.49,55.619,105.777,55.619"/>
<path fill="#C3943C" d="M42.285,55.393c-0.368,0-0.644-0.118-0.828-0.359s-0.276-0.359-0.276-0.359
	c-1.794-2.928-4.727-7.675-8.797-14.246c-4.071-6.571-7.141-11.583-9.21-15.038c-0.276-0.335-0.46-0.502-0.552-0.502
	c-0.092,0-0.149,0.095-0.172,0.287c-0.023,0.192-0.036,0.336-0.035,0.432l0.138,15.37c0.004,0.334-0.115,0.636-0.344,0.899
	c-0.23,0.263-0.529,0.396-0.898,0.396h-6.692c-0.368,0-0.679-0.12-0.931-0.359c-0.253-0.24-0.38-0.551-0.38-0.936V6.613
	c0-0.383,0.127-0.707,0.38-0.971c0.252-0.264,0.563-0.396,0.931-0.396h6.762c0.322,0,0.598,0.144,0.828,0.432l16.695,28.994
	c0.414,0.815,0.759,1.225,1.035,1.225c0.23,0,0.348-0.409,0.345-1.225l-0.069-21.659c-0.001-0.384,0.126-0.708,0.38-0.972
	c0.252-0.264,0.541-0.395,0.862-0.395h7.313c0.369,0,0.679,0.132,0.932,0.395c0.251,0.264,0.379,0.588,0.379,0.972v41.086
	c0,0.382-0.127,0.694-0.379,0.935c-0.253,0.24-0.563,0.359-0.932,0.359h-6.347h-0.069H42.285z"/>
</svg>
