<?xml version="1.0" encoding="utf-8"?>
<!-- Generator: Adobe Illustrator 16.0.0, SVG Export Plug-In . SVG Version: 6.00 Build 0)  -->
<!DOCTYPE svg PUBLIC "-//W3C//DTD SVG 1.1//EN" "http://www.w3.org/Graphics/SVG/1.1/DTD/svg11.dtd">
<svg version="1.1" id="Capa_1" xmlns="http://www.w3.org/2000/svg" xmlns:xlink="http://www.w3.org/1999/xlink" x="0px" y="0px"
	 width="800px" height="202.667px" viewBox="0 0 800 202.667" enable-background="new 0 0 800 202.667" xml:space="preserve">
<path fill="#4E4E4E" d="M5.475,201.613c-1.535,0-2.836-0.537-3.89-1.586C0.527,198.967,0,197.768,0,196.421V5.034
	C0,3.5,0.578,2.201,1.729,1.147C2.883,0.086,4.13-0.438,5.475-0.438h28.826c1.341,0,2.542,0.524,3.6,1.585
	c1.058,1.054,1.584,2.353,1.584,3.887v191.387c0,1.347-0.48,2.546-1.441,3.605c-0.961,1.049-2.209,1.586-3.744,1.586H5.475z"/>
<path fill="#4E4E4E" d="M276.716,90.639c7.495,0,13.934-2.64,19.313-7.924c5.378-5.285,8.071-11.581,8.071-18.881
	c0-7.495-2.693-13.834-8.071-19.02c-5.379-5.191-11.818-7.788-19.313-7.788h-26.802c-3.46,0-5.192,1.922-5.192,5.766v43.236
	c0,1.348,0.387,2.453,1.154,3.313c0.768,0.867,1.825,1.297,3.17,1.297H276.716z M216.189,201.9c-1.538,0-2.836-0.537-3.891-1.586
	c-1.057-1.06-1.588-2.259-1.588-3.606V5.034c0-1.341,0.531-2.546,1.588-3.6c1.055-1.062,2.353-1.585,3.891-1.585h60.526
	c11.916,0,22.916,2.833,33.003,8.505c10.089,5.666,18.061,13.397,23.923,23.2c5.859,9.797,8.793,20.561,8.793,32.28
	c0,9.996-2.306,19.312-6.92,27.961c-4.611,8.647-10.858,16.135-18.732,22.485c-1.154,0.961-1.731,2.209-1.731,3.743
	c0,0.574,0.097,1.062,0.287,1.436c0.193,0.388,0.291,0.675,0.291,0.874l33.433,74.641c0.578,1.348,0.864,2.597,0.864,3.757
	c0,2.108-1.248,3.171-3.747,3.171h-25.362c-2.115,0-3.7-0.201-4.755-0.574c-1.061-0.389-1.971-1.349-2.739-2.884l-30.264-67.453
	c-0.383-1.148-1.107-1.921-2.162-2.309c-1.058-0.374-2.93-0.661-5.622-0.861h-23.056c-2.886,0-4.855,0.388-5.909,1.161
	c-1.058,0.761-1.588,2.209-1.588,4.317v63.41c0,1.348-0.528,2.547-1.582,3.606c-1.058,1.049-2.355,1.586-3.894,1.586H216.189z"/>
<path fill="#4E4E4E" d="M580.586,200.738c-14.795,0-29.927-2.396-45.396-7.2c-15.469-4.806-26.37-10.083-32.716-15.849
	c-1.147-1.161-1.729-2.596-1.729-4.331c0-1.922,0.768-4.317,2.309-7.201c1.535-2.883,4.132-6.913,7.782-12.105
	c1.341-1.922,2.977-2.883,4.897-2.883c0.581,0,1.441,0.188,2.596,0.574c13.641,6.914,24.929,11.295,33.864,13.116
	c8.935,1.822,18.401,2.733,28.392,2.733c9.803,0,17.533-1.672,23.205-5.042c5.666-3.356,8.499-7.825,8.499-13.403
	c0-4.604-2.016-9.51-6.053-14.701c-2.496-3.257-6.483-6.003-11.962-8.211c-5.473-2.21-12.343-4.469-20.604-6.777
	c-0.962-0.187-3.464-0.861-7.494-2.01c-15.568-4.617-27.674-10.136-36.322-16.576c-8.643-6.439-14.408-14.557-17.291-24.354
	c-2.115-6.728-3.17-12.873-3.17-18.451c0-9.797,2.596-18.782,7.781-26.951c5.192-8.161,12.68-14.938,22.482-20.316
	c9.803-5.379,21.327-8.743,34.588-10.091c1.728-0.187,4.417-0.287,8.067-0.287c14.607,0,28.923,2.79,42.949,8.362
	c14.988,7.495,21.615,13.834,19.887,19.019c-1.148,2.883-3.407,6.489-6.771,10.814c-3.363,4.324-5.528,7.157-6.489,8.499
	c-0.574,0.774-1.441,1.155-2.59,1.155c-1.921,0-5.191-1.155-9.803-3.457c-6.146-2.883-11.237-4.711-15.275-5.479
	c-8.842-1.922-16.043-2.883-21.615-2.883c-6.152,0-12.398,1.06-18.737,3.17c-4.998,2.502-8.836,5.429-11.525,8.792
	c-2.695,3.363-4.038,6.87-4.038,10.52c0,5.379,2.69,10.09,8.069,14.121c5.959,4.231,12.349,7.788,19.168,10.665
	c6.82,2.889,14.459,5.865,22.914,8.936c9.222,3.463,16.672,6.583,22.339,9.372c5.665,2.783,10.326,6.483,13.977,11.092
	c3.844,3.656,7.063,8.848,9.659,15.562c2.59,6.728,3.888,13.166,3.888,19.318c0,10.758-2.883,20.08-8.643,27.955
	c-5.766,7.874-13.74,13.978-23.924,18.308C605.57,198.579,593.845,200.738,580.586,200.738"/>
<path fill="#4E4E4E" d="M659.682,201.613c-1.154,0-2.115-0.389-2.882-1.162c-0.769-0.761-1.155-1.722-1.155-2.882V3.592
	c0-1.154,0.387-2.108,1.155-2.883c0.767-0.767,1.728-1.148,2.882-1.148h30.264c1.155,0,2.108,0.431,2.883,1.292
	c0.768,0.868,1.149,1.779,1.149,2.739V78.82c0,1.735,0.673,3.271,2.021,4.612c1.342,1.347,2.882,2.022,4.611,2.022h54.762
	c1.727,0,3.22-0.631,4.467-1.873c1.248-1.254,1.973-2.839,2.159-4.761V3.592c0-0.96,0.387-1.872,1.155-2.739
	c0.767-0.861,1.734-1.292,2.882-1.292h30.264c1.155,0,2.116,0.381,2.882,1.148c0.769,0.774,1.155,1.729,1.155,2.883v193.977
	c0,1.16-0.387,2.121-1.155,2.882c-0.766,0.773-1.727,1.162-2.882,1.162h-30.264c-1.147,0-2.115-0.438-2.882-1.299
	c-0.769-0.874-1.155-1.784-1.155-2.745v-66.867c-0.187-1.921-0.911-3.507-2.159-4.754c-1.247-1.249-2.74-1.873-4.467-1.873h-54.762
	c-1.729,0-3.22,0.574-4.468,1.735c-1.248,1.147-1.972,2.684-2.164,4.604v67.154c0,0.961-0.382,1.871-1.149,2.745
	c-0.774,0.861-1.728,1.299-2.883,1.299H659.682z"/>
<path fill="#4E4E4E" d="M421.382,202.498c-12.811,0-24.664-3.157-35.561-9.46c-10.898-6.314-19.597-14.875-26.099-25.67
	c-6.496-10.808-9.75-22.601-9.75-35.417V4.916c0-1.535,0.528-2.821,1.579-3.875c1.052-1.048,2.248-1.579,3.585-1.579h27.53
	c1.339,0,2.533,0.53,3.585,1.579c1.051,1.054,1.579,2.34,1.579,3.875v127.035c0,9.372,3.247,17.346,9.749,23.948
	c6.499,6.589,14.43,9.896,23.803,9.896c7.069,0,13.715-1.535,19.93-4.593c6.208-3.058,11.132-7.176,14.77-12.33
	c3.632-5.167,5.448-10.808,5.448-16.922V4.916c0-1.535,0.523-2.821,1.578-3.875c1.048-1.048,2.246-1.579,3.582-1.579h27.53
	c1.335,0,2.533,0.53,3.581,1.579c1.055,1.054,1.578,2.34,1.578,3.875v127.035c0,13.003-3.344,24.859-10.032,35.566
	c-6.695,10.695-15.968,19.206-27.817,25.521C449.673,199.34,436.289,202.498,421.382,202.498"/>
<path fill="#C3943C" d="M166.289,201.587c-1.479,0-2.59-0.475-3.326-1.436c-0.74-0.96-1.108-1.435-1.108-1.435
	c-7.21-11.719-18.99-30.738-35.342-57.058c-16.355-26.308-28.688-46.385-37.005-60.212c-1.107-1.347-1.847-2.021-2.218-2.021
	c-0.368,0-0.6,0.387-0.69,1.155c-0.093,0.767-0.143,1.341-0.14,1.728l0.552,61.547c0.016,1.347-0.462,2.546-1.385,3.606
	s-2.125,1.585-3.601,1.585H55.138c-1.479,0-2.727-0.487-3.744-1.435c-1.014-0.974-1.526-2.223-1.526-3.757V6.245
	c0-1.535,0.512-2.833,1.526-3.887c1.017-1.054,2.265-1.591,3.744-1.591H82.3c1.295,0,2.403,0.58,3.326,1.735l67.082,116.108
	c1.663,3.27,3.048,4.904,4.156,4.904c0.927,0,1.397-1.635,1.389-4.904l-0.278-86.737c-0.007-1.535,0.505-2.832,1.522-3.888
	c1.017-1.054,2.171-1.584,3.466-1.584h29.384c1.476,0,2.724,0.53,3.737,1.584c1.017,1.056,1.525,2.353,1.525,3.888v164.536
	c0,1.534-0.508,2.784-1.525,3.744c-1.014,0.961-2.262,1.436-3.737,1.436h-25.502h-0.278H166.289z"/>
</svg>
