<?xml version="1.0" encoding="utf-8"?>
<!-- Generator: Adobe Illustrator 16.0.0, SVG Export Plug-In . SVG Version: 6.00 Build 0)  -->
<!DOCTYPE svg PUBLIC "-//W3C//DTD SVG 1.1//EN" "http://www.w3.org/Graphics/SVG/1.1/DTD/svg11.dtd">
<svg version="1.1" id="Capa_1" xmlns="http://www.w3.org/2000/svg" xmlns:xlink="http://www.w3.org/1999/xlink" x="0px" y="0px"
	 width="250px" height="250px" viewBox="0 0 250 250" enable-background="new 0 0 250 250" xml:space="preserve">
<path opacity="0.75" fill="#FFFFFF" d="M14.146,244.238c-1.701,0-3.137-0.63-4.304-1.883c-1.169-1.255-1.755-2.684-1.755-4.283
	V10.741c0-1.826,0.639-3.366,1.915-4.622c1.275-1.255,2.658-1.883,4.145-1.883h31.891c1.488,0,2.816,0.627,3.987,1.883
	c1.169,1.255,1.752,2.796,1.752,4.622v227.332c0,1.6-0.532,3.028-1.593,4.283c-1.063,1.253-2.446,1.883-4.146,1.883H14.146z"/>
<path opacity="0.75" fill="#C3943C" d="M200.898,243.555c-1.754,0-3.074-0.576-3.95-1.715c-0.878-1.14-1.316-1.714-1.316-1.714
	c-8.566-13.922-22.563-36.518-41.997-67.788c-19.434-31.268-34.091-55.121-43.971-71.554c-1.317-1.598-2.196-2.396-2.635-2.396
	c-0.439,0-0.714,0.458-0.823,1.369c-0.109,0.912-0.168,1.6-0.164,2.054l0.659,73.139c0.014,1.599-0.55,3.025-1.648,4.279
	c-1.096,1.257-2.526,1.885-4.281,1.885H68.822c-1.755,0-3.239-0.573-4.447-1.712c-1.207-1.146-1.812-2.626-1.812-4.452V11.426
	c0-1.825,0.604-3.365,1.812-4.621c1.208-1.256,2.69-1.885,4.447-1.885h32.277c1.539,0,2.855,0.685,3.953,2.056l79.708,137.974
	c1.978,3.88,3.623,5.818,4.939,5.818c1.1,0,1.659-1.938,1.648-5.818l-0.331-103.07c-0.003-1.825,0.606-3.365,1.813-4.62
	c1.208-1.256,2.58-1.884,4.118-1.884h34.912c1.757,0,3.24,0.628,4.446,1.884c1.205,1.254,1.812,2.796,1.812,4.62v195.508
	c0,1.824-0.606,3.313-1.812,4.452c-1.206,1.139-2.689,1.715-4.446,1.715h-30.302h-0.329H200.898z"/>
</svg>
