<?xml version="1.0" encoding="utf-8"?>
<!-- Generator: Adobe Illustrator 16.0.0, SVG Export Plug-In . SVG Version: 6.00 Build 0)  -->
<!DOCTYPE svg PUBLIC "-//W3C//DTD SVG 1.1//EN" "http://www.w3.org/Graphics/SVG/1.1/DTD/svg11.dtd">
<svg version="1.1" id="Capa_1" xmlns="http://www.w3.org/2000/svg" xmlns:xlink="http://www.w3.org/1999/xlink" x="0px" y="0px"
	 width="250px" height="250px" viewBox="0 0 250 250" enable-background="new 0 0 250 250" xml:space="preserve">
<g>
	<g>
		<path fill="#4D4D4D" d="M41.534,0v207.914h176.76V0H41.534z M197.843,187.57H62.659V21.442h135.184V187.57z"/>
		<path fill="#4D4D4D" d="M193.233,26.052H67.269v156.913h125.965V26.052z M85.556,114.59c-5.882,0-10.633-4.749-10.633-10.633
			c0-5.884,4.751-10.666,10.633-10.666c5.884,0,10.633,4.782,10.633,10.666C96.188,109.841,91.439,114.59,85.556,114.59z
			 M155.241,160.703h-49.766c-1.596,0-2.268-1.135-1.453-2.553l24.882-43.064c0.78-1.414,2.126-1.414,2.941,0l24.882,43.064
			C157.545,159.568,156.872,160.703,155.241,160.703z M160.945,74.542c0,2.942-2.377,5.277-5.277,5.277h-51.467
			c-2.942,0-5.316-2.335-5.316-5.277H97.43c0-1.528,0.639-2.909,1.596-3.938c1.028-0.992,2.444-1.631,3.934-1.631h53.912
			c3.049,0,5.528,2.516,5.528,5.568H160.945z M160.945,61.25c0,2.905-2.377,5.277-5.277,5.277h-51.467
			c-2.942,0-5.316-2.373-5.316-5.277H97.43c0-1.562,0.639-2.942,1.596-3.938c1.028-1.028,2.444-1.631,3.934-1.631h53.912
			c3.049,0,5.528,2.483,5.528,5.569H160.945z M160.945,47.92c0,2.942-2.377,5.282-5.277,5.282h-51.467
			c-2.942,0-5.316-2.339-5.316-5.282H97.43c0-1.524,0.639-2.905,1.596-3.934c1.028-0.991,2.444-1.594,3.934-1.594h53.912
			c3.049,0,5.528,2.479,5.528,5.527H160.945z"/>
		<path fill="#D49631" d="M108.311,157.371h44.095L130.357,119.2L108.311,157.371z M135.959,141.068l-8.685,14.283l2.729-11.309
			h-6.345l7.656-13.645l-2.09,10.67H135.959z"/>
		<path fill="#4D4D4D" d="M85.556,100.307c-1.383,0-2.516,1.135-2.516,2.516c0,1.029,0.639,1.951,1.559,2.307v2.585
			c0,0.533,0.426,0.958,0.957,0.958c0.533,0,0.957-0.426,0.957-0.958v-2.585c0.887-0.356,1.526-1.278,1.526-2.307
			C88.039,101.441,86.938,100.307,85.556,100.307z"/>
		<path fill="#4D4D4D" d="M104.201,50.542h51.467c1.696,0,3.15-1.061,3.721-2.623h-58.945
			C100.975,49.481,102.464,50.542,104.201,50.542z"/>
		<path fill="#4D4D4D" d="M104.201,63.868h51.467c1.696,0,3.15-1.098,3.721-2.618h-58.945
			C100.975,62.77,102.464,63.868,104.201,63.868z"/>
		<path fill="#4D4D4D" d="M104.201,77.16h51.467c1.696,0,3.15-1.098,3.721-2.618h-58.945
			C100.975,76.062,102.464,77.16,104.201,77.16z"/>
		<rect x="101.03" y="212.762" fill="#4D4D4D" width="24.289" height="37.238"/>
		<rect x="134.3" y="212.762" fill="#4D4D4D" width="24.281" height="37.238"/>
	</g>
</g>
</svg>
