<?xml version="1.0" encoding="utf-8"?>
<!-- Generator: Adobe Illustrator 16.0.0, SVG Export Plug-In . SVG Version: 6.00 Build 0)  -->
<!DOCTYPE svg PUBLIC "-//W3C//DTD SVG 1.1//EN" "http://www.w3.org/Graphics/SVG/1.1/DTD/svg11.dtd">
<svg version="1.1" id="Capa_1" xmlns="http://www.w3.org/2000/svg" xmlns:xlink="http://www.w3.org/1999/xlink" x="0px" y="0px"
	 width="250px" height="250px" viewBox="0 0 250 250" enable-background="new 0 0 250 250" xml:space="preserve">
<g>
	<g>
		<path fill="#4D4D4D" d="M161.17,137.343l13.035,3.857v40.647h-99.3v-40.826l12.359-3.679v0.394
			c0,10.108,16.574,18.321,36.972,18.321c20.396,0,36.934-8.213,36.934-18.321V137.343z"/>
		<path fill="#4D4D4D" d="M198.992,250v-68.152h-2.855v-34.146l28.115,8.356c0.427,0.108,0.854,0.216,1.247,0.359
			c0.715,0.247,1.428,0.463,2.035,0.748c10.751,4.644,12.112,16.431,12.859,21.719C241.215,184.634,247,250,247,250H198.992z"/>
		<path fill="#4D4D4D" d="M175.276,56.899V37.541C175.276,15.18,152.417,0,124.236,0C96.054,0,73.192,15.18,73.192,37.541v19.358
			c-3.824,2.396-5.859,9.753-4.609,17.931c1.037,6.932,4.109,12.504,7.681,14.614c0.356,0.213,0.716,0.392,1.106,0.533
			c3.001,11.824,8.789,22.11,16.359,29.646c8.396,8.36,18.969,13.287,30.468,13.287c10.827,0,20.826-4.357,28.938-11.823
			c8.392-7.607,14.789-18.501,17.964-31.147c4.001-1.5,7.645-7.463,8.789-15.11C181.103,66.689,179.101,59.328,175.276,56.899z
			 M149.988,117.659c-7.538,6.968-16.466,10.611-25.791,10.611c-9.928,0-19.358-4.109-27.182-11.933
			c-7.035-7.002-12.181-16.29-14.967-26.718c-1.536-5.822-2.356-12.002-2.356-18.36c0-4.43,0.394-8.752,1.143-12.895
			c0.18-1.001,0.394-1.963,0.607-2.93c0.178,0,0.394-0.034,0.572-0.072l4.965,7.466c0.037,0.037,0.037,0.069,0.072,0.108
			c3.07,4.75,3.428,5.892,7.609,5.892h0.676c2.858-1.536,14.682-2.645,28.899-2.645s26.146,1.145,28.932,2.645h0.681
			c4.178,0,4.498-1.143,7.642-5.892c0.036-0.039,0.036-0.072,0.068-0.108l4.933-7.466c0.176,0.038,0.39,0.072,0.57,0.072
			c0.214,0.967,0.394,1.929,0.574,2.896c0.747,4.142,1.142,8.462,1.142,12.929c0,6.321-0.821,12.502-2.43,18.325
			C163.385,100.764,157.702,110.66,149.988,117.659z"/>
		<polygon fill="#D49631" points="166.672,193.671 153.028,217.962 164.305,217.962 159.495,238.069 174.927,212.698 
			162.926,212.704 		"/>
		<path fill="#4D4D4D" d="M184.098,250H1.503c0,0,5.751-65.366,6.572-71.116c0.785-5.288,2.144-17.075,12.896-21.719
			c0.642-0.285,1.283-0.501,2.035-0.748c0.394-0.144,0.82-0.251,1.247-0.359l28.72-8.537v34.327h-3.5v49.436L184.098,250z"/>
	</g>
</g>
</svg>
