<?xml version="1.0" encoding="utf-8"?>
<!-- Generator: Adobe Illustrator 16.0.0, SVG Export Plug-In . SVG Version: 6.00 Build 0)  -->
<!DOCTYPE svg PUBLIC "-//W3C//DTD SVG 1.1//EN" "http://www.w3.org/Graphics/SVG/1.1/DTD/svg11.dtd">
<svg version="1.1" id="Capa_1" xmlns="http://www.w3.org/2000/svg" xmlns:xlink="http://www.w3.org/1999/xlink" x="0px" y="0px"
	 width="250px" height="250px" viewBox="0 0 250 250" enable-background="new 0 0 250 250" xml:space="preserve">
<g>
	<path fill="#4D4D4D" d="M37.894,109.283l31.955,43.904l-1.078,6.891l-40.045-28.164c-5.72-4.047-7.111-11.978-3.065-17.733
		c1.96-2.782,4.677-4.391,7.68-4.898C34.797,109.031,36.34,109.031,37.894,109.283z"/>
	<path fill="#4D4D4D" d="M73.324,34.283l7.998,46.115l-3.387,21.46L65.45,87.726c-2.019-2.12-4.263-3.759-6.661-4.863l-7.777-44.695
		c-1.082-6.166,3.034-12.04,9.191-13.118c3.104-0.539,6.104,0.252,8.479,1.899C71.049,28.623,72.785,31.18,73.324,34.283z"/>
	<path fill="#4D4D4D" d="M95.734,10.669c-2.531,2.368-4.297,5.53-4.867,9.168l-7.239,46.017l-8.091-46.459
		c-1.073-6.165,3.065-12.013,9.2-13.09c3.092-0.535,6.1,0.225,8.467,1.899C94.153,8.898,95.009,9.72,95.734,10.669z"/>
	<polygon fill="#4D4D4D" points="189.198,221.297 178.859,223.1 183.92,190.955 	"/>
	<path fill="#D49631" d="M147.758,195.92c-10.905-1.736-21.112,5.719-22.852,16.623c-1.705,10.904,5.719,21.115,16.624,22.855
		c10.904,1.709,21.15-5.754,22.855-16.658C166.091,207.832,158.662,197.629,147.758,195.92z M138.624,231.92l6.006-14.57
		l-8.502-1.326l13.148-16.66l-5.061,13.877l9.044,1.42L138.624,231.92z M147.758,195.92c-10.905-1.736-21.112,5.719-22.852,16.623
		c-1.705,10.904,5.719,21.115,16.624,22.855c10.904,1.709,21.15-5.754,22.855-16.658
		C166.091,207.832,158.662,197.629,147.758,195.92z M138.624,231.92l6.006-14.57l-8.502-1.326l13.148-16.66l-5.061,13.877
		l9.044,1.42L138.624,231.92z M147.758,195.92c-10.905-1.736-21.112,5.719-22.852,16.623c-1.705,10.904,5.719,21.115,16.624,22.855
		c10.904,1.709,21.15-5.754,22.855-16.658C166.091,207.832,158.662,197.629,147.758,195.92z M138.624,231.92l6.006-14.57
		l-8.502-1.326l13.148-16.66l-5.061,13.877l9.044,1.42L138.624,231.92z"/>
	<path fill="#4D4D4D" d="M201.017,33.362c-1.802-2.465-4.521-4.267-7.773-4.774c-6.51-1.007-12.609,3.449-13.655,9.928
		l-8.061,51.392l-4.933-0.76l10.18-64.827c0.504-3.221-0.314-6.382-2.116-8.847c-1.802-2.465-4.522-4.235-7.781-4.771
		c-6.506-1.011-12.605,3.414-13.647,9.92l-10.177,64.827l-4.937-0.791l11.16-70.864c0.508-3.286-0.349-6.414-2.15-8.878
		c-1.802-2.468-4.519-4.27-7.777-4.774c-6.511-1.011-12.61,3.414-13.648,9.924l-11.13,70.896l-4.933-0.791l8.823-56.008
		c0.508-3.259-0.349-6.417-2.154-8.885c-1.798-2.46-4.518-4.263-7.804-4.77c-6.479-1.012-12.579,3.445-13.59,9.959l-14.288,90.678
		L62.512,90.574c-2.747-2.849-6.006-4.677-9.385-5.22c-3.197-0.503-6.444,0.194-9.324,2.31c-6.006,4.329-7.301,12.707-2.941,18.713
		l33.318,45.77l-12.707,80.691L170.458,250l32.71-207.756C203.672,38.958,202.819,35.826,201.017,33.362z M167.985,219.309
		c-2.019,12.896-14.125,21.713-27.021,19.66c-12.865-2.023-21.685-14.094-19.662-26.994c2.022-12.893,14.129-21.713,27.029-19.66
		C161.224,194.338,170.008,206.416,167.985,219.309z"/>
</g>
</svg>
